<svg xmlns="http://www.w3.org/2000/svg" width="519.17" height="271.18" viewBox="0 0 519.17 271.18"><title>auto</title><g id="Layer_2" data-name="Layer 2"><g id="Layer_1-2" data-name="Layer 1"><path d="M505,140a56.38,56.38,0,0,0-45.5-34L380.23,97,338,28.27A59.39,59.39,0,0,0,287.38,0H150.91A79,79,0,0,0,74.72,58.05l-1.07,3.88A64.28,64.28,0,0,1,57.23,90.24,64.42,64.42,0,0,1,29,106.84,27.22,27.22,0,0,0,9.17,133v76.25l43.14-10.09A60.39,60.39,0,0,1,160.07,193a58.51,58.51,0,0,1,3.09,6.17H346.34a57.16,57.16,0,0,1,3-6.1A60.4,60.4,0,0,1,454.1,193a58.51,58.51,0,0,1,3.09,6.17h48.1l.3,0,3.5-30.78c.15-1.26.25-2.5.3-3.75A56.11,56.11,0,0,0,505,140Z" style="fill:#f9a33d"/><path d="M519.17,212.75h0a13.53,13.53,0,0,1-13.53,13.53H462.06c.06-1,.09-2.08.09-3.12a60.15,60.15,0,0,0-5-24l48.46,0A13.53,13.53,0,0,1,519.17,212.75Z" style="fill:#ed7d29"/><path d="M449.8,223.16c0,1,0,2.09-.1,3.12a48,48,0,0,1-95.85,0c-.07-1-.1-2.08-.1-3.12a48,48,0,1,1,96.05,0Zm-28.33,0a19.7,19.7,0,1,0-19.69,19.7A19.72,19.72,0,0,0,421.47,223.16Z" style="fill:#ed7d29"/><path d="M401.78,203.46a19.7,19.7,0,1,1-19.7,19.7A19.72,19.72,0,0,1,401.78,203.46Z" style="fill:#fff"/><path d="M341.39,223.16c0,1,0,2.1.09,3.12H168c.06-1,.09-2.09.09-3.12a60.15,60.15,0,0,0-5-24H346.34A60.46,60.46,0,0,0,341.39,223.16Z" style="fill:#ed7d29"/><path d="M130.26,31.45V97H92.67S97,79.19,99.82,69.13l1.07-3.88a50.57,50.57,0,0,1,2-6A52,52,0,0,1,130.26,31.45Z" style="fill:#fff"/><path d="M224.68,27.14V97H147.11V27.28c1.26-.1,2.53-.15,3.8-.15Z" style="fill:#fff"/><path d="M348.36,97H241.53V27.14h45.85a32.46,32.46,0,0,1,27.46,15.35Z" style="fill:#fff"/><path d="M155.67,226.28a48,48,0,0,1-95.85,0c-.07-1-.1-2.08-.1-3.12a48,48,0,1,1,96.05,0C155.77,224.2,155.74,225.25,155.67,226.28Zm-28.22-3.12a19.7,19.7,0,1,0-19.7,19.7A19.73,19.73,0,0,0,127.45,223.16Z" style="fill:#ed7d29"/><path d="M107.75,203.46A19.7,19.7,0,1,1,88,223.16,19.73,19.73,0,0,1,107.75,203.46Z" style="fill:#fff"/><path d="M47.36,223.16c0,1,0,2.09.09,3.12H13.55A13.55,13.55,0,0,1,0,212.73H0a13.55,13.55,0,0,1,13.55-13.55H52.32A60.38,60.38,0,0,0,47.36,223.16Z" style="fill:#ed7d29"/><path d="M287.82,133.94h-17.7a6.74,6.74,0,1,1,0-13.48h17.7a6.74,6.74,0,0,1,0,13.48Z" style="fill:#f7931e"/><path d="M166.26,133.94h-17.7a6.74,6.74,0,0,1,0-13.48h17.7a6.74,6.74,0,0,1,0,13.48Z" style="fill:#f7931e"/><path d="M509.4,164.69H495.86A24.71,24.71,0,0,1,471.15,140H505C508.69,148.11,510.37,156.11,509.4,164.69Z" style="fill:#f7931e"/><polygon points="224.68 27.28 224.68 96.97 216.79 96.97 147.11 27.28 224.68 27.28" style="fill:#fff"/><path d="M348.36,97h-37L241.53,27.14h45.85a32.46,32.46,0,0,1,27.46,15.35Z" style="fill:#fff"/><path d="M130.26,31.45V86.6L102.93,59.27A52,52,0,0,1,130.26,31.45Z" style="fill:#fff"/></g></g></svg>